<?xml version="1.0" encoding="utf-8"?>
<!-- Generator: Adobe Illustrator 23.0.4, SVG Export Plug-In . SVG Version: 6.00 Build 0)  -->
<svg version="1.1" id="Layer_1" xmlns="http://www.w3.org/2000/svg" xmlns:xlink="http://www.w3.org/1999/xlink" x="0px" y="0px"
	 viewBox="0 0 527.2 262.6" style="enable-background:new 0 0 527.2 262.6;" xml:space="preserve">
<style type="text/css">
	.st0{fill-rule:evenodd;clip-rule:evenodd;fill:#FFFFFF;}
	.st1{fill-rule:evenodd;clip-rule:evenodd;fill:#CA312C;}
	.st2{fill-rule:evenodd;clip-rule:evenodd;fill:#91B949;}
</style>
<title>cp_logoAsset 2</title>
<g>
	<g id="coinpaprika_copy_15">
		<path class="st0" d="M30.2,236.1c-1,0.2-2.1,0.4-3.1,0.6c-1,0.1-2,0.2-2.9,0.2c-1.8,0-3.6-0.3-5.2-0.9c-1.5-0.6-2.9-1.5-4-2.7
			c-1.2-1.2-2-2.7-2.6-4.3c-0.6-1.8-0.9-3.8-0.9-5.7c0-1.9,0.3-3.8,0.9-5.6c0.5-1.6,1.4-3.1,2.5-4.3c1.1-1.2,2.5-2.2,4-2.8
			c1.7-0.7,3.5-1,5.3-1c2,0,4,0.3,6,0.7c2,0.5,4,1.2,5.9,2.1V202c-1.7-0.5-3.5-0.9-5.3-1.1c-2.4-0.3-4.8-0.5-7.2-0.5
			c-3.3,0-6.5,0.5-9.6,1.7c-5.6,2.1-9.9,6.5-12,12.1c-1.2,3.1-1.8,6.3-1.8,9.6c-0.1,3.3,0.5,6.6,1.5,9.7c1.9,5.4,6.2,9.5,11.6,11.3
			c3,1,6.2,1.5,9.4,1.4c2.3,0,4.7-0.2,7-0.6c2.2-0.4,4.4-1,6.5-1.9v-9.4c-0.9,0.4-1.9,0.7-2.8,1C32.2,235.6,31.2,235.8,30.2,236.1z
			 M83.6,205.9c-1.8-1.9-4.1-3.4-6.6-4.3c-2.8-1-5.8-1.5-8.8-1.5c-3.1-0.1-6.2,0.5-9.2,1.7c-2.6,1.1-4.9,2.7-6.8,4.7
			c-1.9,2.1-3.4,4.6-4.3,7.4c-1,3.1-1.5,6.3-1.5,9.6c-0.1,3.4,0.4,6.8,1.4,10c0.8,2.7,2.3,5.1,4.1,7.1c1.8,1.9,4.1,3.4,6.6,4.3
			c2.8,1,5.8,1.5,8.8,1.4c3.2,0.1,6.3-0.5,9.2-1.7c2.6-1.1,4.9-2.7,6.8-4.8c1.9-2.2,3.4-4.7,4.3-7.4c1-3.1,1.5-6.3,1.5-9.6
			c0.1-3.3-0.4-6.6-1.4-9.8C86.8,210.4,85.4,208,83.6,205.9L83.6,205.9z M77.4,228.7c-0.4,1.6-1,3.1-1.8,4.5c-0.8,1.3-1.9,2.3-3.2,3
			c-1.4,0.7-3,1.1-4.6,1.1c-3,0.1-5.8-1.2-7.6-3.5c-1.9-2.3-2.8-5.8-2.8-10.4c0-1.8,0.2-3.6,0.6-5.4c0.3-1.6,1-3.1,1.8-4.4
			c0.8-1.2,1.9-2.3,3.2-3c1.5-0.8,3.1-1.1,4.8-1.1c3.4,0,5.9,1.1,7.6,3.5s2.6,5.7,2.6,10.3C78,225,77.8,226.8,77.4,228.7L77.4,228.7
			z M112.4,193.9c1.3,1.3,3.1,2,5,2c0.9,0,1.9-0.2,2.7-0.5c0.8-0.3,1.6-0.9,2.2-1.5c0.6-0.6,1.1-1.4,1.5-2.2
			c1.1-2.6,0.5-5.6-1.5-7.6c-0.6-0.6-1.4-1.2-2.2-1.5c-0.9-0.4-1.8-0.5-2.7-0.5c-0.9,0-1.9,0.2-2.8,0.5c-0.8,0.3-1.6,0.9-2.2,1.5
			c-0.6,0.6-1.1,1.4-1.5,2.2c-0.7,1.7-0.7,3.7,0,5.4C111.3,192.5,111.8,193.3,112.4,193.9L112.4,193.9z M123.4,201.1h-23.4v8.3h12.5
			v27.7h-14v8.3h37.6v-8.3h-12.8V201.1z M180.9,204.4c-1.1-1.4-2.6-2.4-4.2-3.1c-1.9-0.8-3.9-1.2-5.9-1.1c-1.5,0-3,0.2-4.4,0.5
			c-1.3,0.3-2.5,0.8-3.6,1.5c-1.1,0.7-2.2,1.5-3.2,2.4c-1,1-1.9,2-2.8,3.1l-0.3-6.5h-9.2v44.2h10.6v-28c1.5-2.2,3.3-4.1,5.2-5.9
			c1.4-1.3,3.2-2.1,5.2-2.2c3.6,0,5.4,2.4,5.4,7.3v28.8h10.6v-29.7c0-2.2-0.3-4.3-0.9-6.4C182.9,207.5,182.1,205.8,180.9,204.4z
			 M231.8,206.2c-1.3-1.9-3.1-3.4-5.1-4.5c-2.2-1.1-4.6-1.6-7-1.6c-1.5,0-3,0.2-4.4,0.5c-1.3,0.3-2.5,0.8-3.6,1.5
			c-1.1,0.7-2.2,1.5-3.2,2.4c-1,1-1.9,2-2.8,3.1l-0.3-6.5h-9.2v61.5h10.6v-17.3c1,0.3,2,0.4,3,0.6c1.1,0.1,2.2,0.2,3.3,0.2
			c3.1,0,6.2-0.4,9.1-1.4c2.7-0.9,5.2-2.4,7.2-4.4c2.1-2.1,3.8-4.6,4.8-7.4c1.2-3.4,1.8-6.9,1.7-10.5c0-3.1-0.3-6.2-1.1-9.2
			C234.4,210.7,233.3,208.3,231.8,206.2L231.8,206.2z M224.2,229.1c-0.5,1.7-1.2,3.3-2.2,4.7c-0.9,1.3-2.1,2.3-3.5,3
			c-1.4,0.7-3,1-4.6,1c-1.3,0-2.5-0.1-3.8-0.3c-1.1-0.2-2.1-0.4-3.1-0.8v-19.3c1.5-2.2,3.3-4.1,5.2-5.9c1.4-1.3,3.2-2.1,5.2-2.2
			c1.1,0,2.2,0.2,3.2,0.8c1,0.6,1.8,1.4,2.4,2.4c0.7,1.3,1.2,2.7,1.5,4.2c0.4,2.1,0.5,4.1,0.5,6.2C225,225,224.7,227,224.2,229.1
			L224.2,229.1z M277.7,203.9c-1.7-1.3-3.7-2.3-5.8-2.8c-2.8-0.7-5.6-1-8.5-0.9c-2.9,0-5.8,0.3-8.6,0.8c-2.5,0.5-5,1.2-7.3,2.1v8.5
			c2.4-1.1,4.8-1.9,7.4-2.5c2.5-0.6,5.1-0.9,7.7-0.9c1.4,0,2.8,0.1,4.2,0.5c1,0.3,2,0.8,2.8,1.5c0.7,0.6,1.2,1.4,1.5,2.3
			c0.3,1,0.5,2,0.5,3.1v2.7h-5.8c-3.2-0.1-6.4,0.3-9.6,1.1c-2.4,0.6-4.7,1.6-6.8,3c-1.7,1.2-3.1,2.7-4,4.6c-0.9,1.8-1.4,3.8-1.3,5.8
			c0,1.9,0.3,3.8,0.9,5.6c0.5,1.6,1.4,3.1,2.6,4.3c1.2,1.2,2.7,2.2,4.3,2.8c1.9,0.7,4,1,6,1c1.6,0,3.2-0.2,4.7-0.5
			c1.4-0.3,2.7-0.8,4-1.4c1.2-0.6,2.3-1.3,3.4-2.1c1-0.8,2-1.8,2.9-2.7l0.3,5.8h9.1v-30.2c0-2.2-0.3-4.5-1.1-6.6
			C280.4,206.7,279.2,205.1,277.7,203.9L277.7,203.9z M271.5,231.7c-1.6,1.7-3.4,3.3-5.3,4.6c-1.3,1-3,1.6-4.6,1.6
			c-1.7,0.1-3.4-0.4-4.7-1.4c-1.2-1-1.8-2.5-1.7-4.1c0-0.9,0.2-1.7,0.5-2.6c0.4-0.8,1-1.6,1.7-2.1c0.9-0.7,1.9-1.2,3-1.4
			c1.5-0.4,3-0.6,4.6-0.5h6.5V231.7z M329.9,206.2c-1.3-1.9-3.1-3.4-5.1-4.5c-2.2-1.1-4.6-1.6-7-1.6c-1.5,0-3,0.2-4.4,0.5
			c-1.3,0.3-2.5,0.8-3.7,1.5c-1.1,0.7-2.2,1.5-3.1,2.4c-1,1-1.9,2-2.8,3.1l-0.3-6.5h-9.2v61.5H305v-17.3c1,0.3,2,0.4,3,0.6
			c1.1,0.1,2.2,0.2,3.3,0.2c3.1,0,6.2-0.4,9.1-1.4c2.7-0.9,5.2-2.4,7.2-4.4c2.1-2.1,3.7-4.6,4.8-7.3c1.2-3.4,1.8-6.9,1.7-10.5
			c0-3.1-0.3-6.2-1.1-9.2C332.4,210.7,331.3,208.3,329.9,206.2L329.9,206.2z M322.2,229.1c-0.4,1.7-1.2,3.3-2.2,4.7
			c-0.9,1.3-2.1,2.3-3.5,3c-1.4,0.7-3,1-4.6,1c-1.3,0-2.5-0.1-3.8-0.3c-1.1-0.2-2.1-0.4-3.1-0.8v-19.3c1.5-2.2,3.3-4.1,5.2-5.9
			c1.4-1.3,3.2-2.1,5.1-2.2c1.1,0,2.2,0.2,3.2,0.8c1,0.6,1.8,1.4,2.4,2.4c0.7,1.3,1.2,2.7,1.5,4.2c0.4,2.1,0.6,4.1,0.5,6.2
			C323,225,322.7,227,322.2,229.1L322.2,229.1z M379.2,204.7c-1.1-1.5-2.6-2.7-4.4-3.4c-1.9-0.8-3.9-1.2-5.9-1.2
			c-1.5,0-3,0.2-4.5,0.5c-1.3,0.3-2.6,0.8-3.7,1.5c-1.1,0.6-2.1,1.4-3,2.3c-0.9,0.9-1.8,1.9-2.5,3l-0.4-6.4h-9.6v44.2H356v-28
			c1.5-2.4,3.4-4.5,5.5-6.4c1.4-1.2,3.1-1.9,4.9-1.9c0.8,0,1.7,0.2,2.4,0.5c0.7,0.4,1.3,0.9,1.8,1.6c0.5,0.9,0.9,1.9,1,2.9
			c0.2,1.4,0.3,2.8,0.2,4.2h10.7c0.1-2.7-0.1-5.3-0.7-7.9C381.3,208.3,380.4,206.4,379.2,204.7L379.2,204.7z M406.5,193.9
			c0.6,0.6,1.4,1.1,2.2,1.5c0.9,0.4,1.8,0.5,2.8,0.5c0.9,0,1.9-0.2,2.7-0.5c0.8-0.4,1.6-0.9,2.2-1.5c0.6-0.6,1.1-1.4,1.5-2.2
			c0.7-1.7,0.7-3.7,0-5.4c-1-2.6-3.6-4.3-6.4-4.3c-1,0-1.9,0.2-2.8,0.5c-0.8,0.3-1.6,0.9-2.2,1.5c-0.6,0.6-1.2,1.4-1.5,2.2
			c-0.7,1.7-0.7,3.7,0,5.4C405.3,192.5,405.8,193.3,406.5,193.9L406.5,193.9z M417.5,201.1h-23.4v8.3h12.5V237h-14v8.3h37.6V237
			h-12.8V201.1z M481.2,201.1h-13.3l-15.5,18.7v-36h-10.6v61.5h10.6v-22.1l16.3,22.1h13.9l-19.4-24.1L481.2,201.1z M526.2,208.6
			c-0.7-1.8-1.9-3.4-3.4-4.7c-1.7-1.3-3.7-2.3-5.8-2.8c-2.8-0.7-5.6-1-8.4-0.9c-2.9,0-5.8,0.3-8.6,0.8c-2.5,0.5-5,1.2-7.3,2.1v8.5
			c2.4-1.1,4.8-1.9,7.4-2.5c2.5-0.6,5.1-0.9,7.7-0.9c1.4,0,2.8,0.1,4.2,0.5c1,0.3,2,0.8,2.8,1.5c0.7,0.6,1.2,1.4,1.5,2.3
			c0.3,1,0.5,2,0.5,3.1v2.7h-5.8c-3.2-0.1-6.4,0.3-9.6,1.1c-2.4,0.6-4.7,1.6-6.8,3c-1.7,1.2-3.1,2.7-4,4.6c-0.9,1.8-1.3,3.8-1.3,5.8
			c0,1.9,0.3,3.8,0.9,5.6c0.5,1.6,1.4,3.1,2.6,4.3c1.2,1.2,2.7,2.2,4.3,2.8c1.9,0.7,4,1,6,1c1.6,0,3.2-0.2,4.7-0.5
			c1.4-0.3,2.7-0.8,4-1.4c1.2-0.6,2.3-1.3,3.3-2.1c1-0.8,2-1.8,2.9-2.7l0.3,5.8h9.1v-30.2C527.3,212.9,526.9,210.7,526.2,208.6
			L526.2,208.6z M516.6,231.7c-1.6,1.7-3.4,3.3-5.3,4.6c-1.3,1-2.9,1.5-4.6,1.6c-1.7,0.1-3.4-0.4-4.8-1.4c-1.2-1-1.8-2.5-1.7-4.1
			c0-0.9,0.2-1.8,0.5-2.6c0.4-0.8,1-1.6,1.7-2.1c0.9-0.7,1.9-1.2,3-1.4c1.5-0.4,3-0.6,4.6-0.5h6.5L516.6,231.7z"/>
	</g>
	<g id="Shape_6_copy_20">
		<g id="Shape_6_copy_20-2">
			<path class="st1" d="M323,44c-1.3-3.4-2.7-6.2-4.8-8.2c-10-11.1-19.2-15.3-34.4-8.3H283c-6.6,1.1-9.9,3.4-12.2,9.9
				c-5.6,16.1-11.6,32.1-17.5,48.2l0,0c-0.9,1.2-1.8,2.3-2.6,3.5c-10.8,7.9-21.2,15.3-36.1,9.2c-5.5-2.2-14.4-1.6-9.7,9.7
				c0.5,1.7,1.1,3.2,2.2,3.8c0.7,1.3,4.1,3.2,5,3.8c20.9,13.7,43.9,16.5,66.1,5.9c25.2-12.1,43.4-31.2,45.3-61.2
				C324,53.6,324.2,48,323,44z"/>
		</g>
	</g>
	<g id="Shape_7_copy_20">
		<g id="Shape_7_copy_20-2">
			<path class="st2" d="M314,28.2c-0.1-4.6,0.9-8.4,1.4-12.5C316.7,5,310.9,0.3,306.2,0c-4.4-0.2-8.7,1.4-11.7,4.6
				c-1.3,1.4-1.9,3.9-0.3,5.7c2.1,2.2,4,2.2,5.2-2.4c2-7.5,10.7,0.1,10.5,3.8c-0.5,7.6-6,10.4-10.7,13.7c-5.1,3.5-9.7,3.6-17.4,6.4
				c-1.6,0.6-1.9,3-0.3,4.4c2,0.3,4,0.4,6,0.1c6.4-1,8.4,0.8,10.3,7.2c3.9-2.1,10.1-2.5,12.4-1.7c4.2,1.5,4.3,4.1,5.7,5.9
				c1,0.3,2-0.2,2.3-1.2c0.1-0.2,0.1-0.4,0.1-0.7C314.5,38.8,314.2,34.6,314,28.2z"/>
		</g>
	</g>
</g>
</svg>
